<?xml version="1.0" encoding="utf-8"?>
<!-- Generator: Adobe Illustrator 24.0.1, SVG Export Plug-In . SVG Version: 6.00 Build 0)  -->
<svg version="1.1" id="Capa_1" xmlns="http://www.w3.org/2000/svg" xmlns:xlink="http://www.w3.org/1999/xlink" x="0px" y="0px"
	 viewBox="0 0 512 512" style="enable-background:new 0 0 512 512;" xml:space="preserve">
<style type="text/css">
	.st0{fill:#FF1F5A;}
	.st1{fill:#FAFAFA;}
</style>
<path class="st0" d="M508.9,216.5L295.6,3.1c-2-2-4.7-3.1-7.6-3.1H10.7C4.8,0,0,4.8,0,10.7c0,2.8,1.1,5.6,3.1,7.6l490.7,490.7
	c2,2,4.7,3.1,7.6,3.1c1.4,0,2.8-0.3,4.1-0.8c4-1.6,6.6-5.5,6.6-9.9V224C512,221.2,510.9,218.5,508.9,216.5z"/>
<g>
	<path class="st1" d="M224,170.7c-5.9,0-10.7-4.8-10.7-10.7c0-0.7,0.1-1.4,0.2-2.1L228,85.7l-39.1,39.1c-4.2,4.1-11,4-15.1-0.3
		c-4-4.1-4-10.7,0-14.8l64-64c4.2-4.2,10.9-4.2,15.1,0c2.5,2.5,3.6,6.1,2.9,9.6l-14.4,72.1l39.1-39.1c4.1-4.2,10.8-4.4,15.1-0.3
		s4.4,10.8,0.3,15.1c-0.1,0.1-0.2,0.2-0.3,0.3l-64,64C229.6,169.6,226.9,170.7,224,170.7z"/>
	<path class="st1" d="M288,234.7c-2.8,0-5.5-1.1-7.6-3.1l-32-32c-4.2-4.2-4.2-10.9,0-15.1l64-64c4.2-4.2,10.9-4.2,15.1,0l32,32
		c4.2,4.1,4.4,10.8,0.3,15.1c-4.1,4.2-10.8,4.4-15.1,0.3c-0.1-0.1-0.2-0.2-0.3-0.3L320,143.1L271.1,192l24.4,24.4
		c4.2,4.2,4.2,10.9,0,15.1C293.6,233.5,290.9,234.7,288,234.7z"/>
	<path class="st1" d="M309.4,192c-2.8,0-5.5-1.1-7.6-3.1l-21.3-21.3c-4.1-4.2-4-11,0.3-15.1c4.1-4,10.7-4,14.8,0l21.3,21.3
		c4.2,4.2,4.1,10.9,0,15.1C314.9,190.9,312.2,192,309.4,192z"/>
	<path class="st1" d="M373.4,320c-5.9,0-10.7-4.8-10.7-10.7c0-1.1,0.2-2.3,0.5-3.4l14.6-43.8l-43.8,14.6c-4.1,1.3-8.6,0.1-11.4-3.1
		c-2.8-3.3-3.4-7.9-1.5-11.8l42.7-85.3c2.6-5.3,9-7.4,14.3-4.8s7.4,9,4.8,14.3l0,0l-31.1,62.3l39.6-13.2c3.8-1.3,8.1-0.3,10.9,2.6
		c2.9,2.9,3.9,7.1,2.6,10.9l-13.2,39.6l62.3-31.1c5.3-2.6,11.7-0.5,14.3,4.8c2.6,5.3,0.5,11.7-4.8,14.3l-85.3,42.7
		C376.7,319.6,375,320,373.4,320z"/>
</g>
</svg>
